<svg xmlns="http://www.w3.org/2000/svg" xmlns:xlink="http://www.w3.org/1999/xlink" width="40" zoomAndPan="magnify" viewBox="0 0 30 30.000001" height="40" preserveAspectRatio="xMidYMid meet" version="1.0"><defs><clipPath id="db49acf699"><path d="M 0.484375 14 L 11 14 L 11 15 L 0.484375 15 Z M 0.484375 14 " clip-rule="nonzero"/></clipPath><clipPath id="de17182baf"><path d="M 14.933594 0 L 29.304688 14.371094 L 14.933594 28.742188 L 0.566406 14.371094 Z M 14.933594 0 " clip-rule="nonzero"/></clipPath><clipPath id="4c1c264374"><path d="M 14.933594 0 L 29.304688 14.371094 L 14.933594 28.742188 L 0.566406 14.371094 Z M 14.933594 0 " clip-rule="nonzero"/></clipPath><clipPath id="25229215e9"><path d="M 6 12 L 11 12 L 11 14 L 6 14 Z M 6 12 " clip-rule="nonzero"/></clipPath><clipPath id="b6f1d6b5b8"><path d="M 14.933594 0 L 29.304688 14.371094 L 14.933594 28.742188 L 0.566406 14.371094 Z M 14.933594 0 " clip-rule="nonzero"/></clipPath><clipPath id="7b18c3f3d5"><path d="M 14.933594 0 L 29.304688 14.371094 L 14.933594 28.742188 L 0.566406 14.371094 Z M 14.933594 0 " clip-rule="nonzero"/></clipPath><clipPath id="6116d00314"><path d="M 6 15 L 11 15 L 11 17 L 6 17 Z M 6 15 " clip-rule="nonzero"/></clipPath><clipPath id="059bc2fa19"><path d="M 14.933594 0 L 29.304688 14.371094 L 14.933594 28.742188 L 0.566406 14.371094 Z M 14.933594 0 " clip-rule="nonzero"/></clipPath><clipPath id="357f42f374"><path d="M 14.933594 0 L 29.304688 14.371094 L 14.933594 28.742188 L 0.566406 14.371094 Z M 14.933594 0 " clip-rule="nonzero"/></clipPath><clipPath id="3ec36b8d41"><path d="M 11 10 L 29.515625 10 L 29.515625 19 L 11 19 Z M 11 10 " clip-rule="nonzero"/></clipPath><clipPath id="f16700d85f"><path d="M 14.933594 0 L 29.304688 14.371094 L 14.933594 28.742188 L 0.566406 14.371094 Z M 14.933594 0 " clip-rule="nonzero"/></clipPath><clipPath id="ea0c9e26bf"><path d="M 14.933594 0 L 29.304688 14.371094 L 14.933594 28.742188 L 0.566406 14.371094 Z M 14.933594 0 " clip-rule="nonzero"/></clipPath><clipPath id="9a7f435c84"><path d="M 16 13 L 26 13 L 26 17 L 16 17 Z M 16 13 " clip-rule="nonzero"/></clipPath><clipPath id="e76ed82d27"><path d="M 14.933594 0 L 29.304688 14.371094 L 14.933594 28.742188 L 0.566406 14.371094 Z M 14.933594 0 " clip-rule="nonzero"/></clipPath><clipPath id="83eb2dc3f4"><path d="M 14.933594 0 L 29.304688 14.371094 L 14.933594 28.742188 L 0.566406 14.371094 Z M 14.933594 0 " clip-rule="nonzero"/></clipPath></defs><g clip-path="url(#db49acf699)"><g clip-path="url(#de17182baf)"><g clip-path="url(#4c1c264374)"><path fill="#ffffff" d="M 0.953125 14.050781 L 10.214844 14.050781 L 10.214844 14.910156 L 0.953125 14.910156 Z M 0.953125 14.050781 " fill-opacity="1" fill-rule="nonzero"/></g></g></g><g clip-path="url(#25229215e9)"><g clip-path="url(#b6f1d6b5b8)"><g clip-path="url(#7b18c3f3d5)"><path fill="#ffffff" d="M 6.113281 12.226562 L 10.21875 12.226562 L 10.21875 13.085938 L 6.113281 13.085938 Z M 6.113281 12.226562 " fill-opacity="1" fill-rule="nonzero"/></g></g></g><g clip-path="url(#6116d00314)"><g clip-path="url(#059bc2fa19)"><g clip-path="url(#357f42f374)"><path fill="#ffffff" d="M 6.113281 15.875 L 10.21875 15.875 L 10.21875 16.734375 L 6.113281 16.734375 Z M 6.113281 15.875 " fill-opacity="1" fill-rule="nonzero"/></g></g></g><g clip-path="url(#3ec36b8d41)"><g clip-path="url(#f16700d85f)"><g clip-path="url(#ea0c9e26bf)"><path fill="#ffffff" d="M 29.066406 14.589844 C 29.066406 14.285156 28.945312 14.011719 28.703125 13.828125 L 28.214844 13.402344 C 26.042969 11.535156 23.15625 10.742188 20.300781 11.261719 L 17.65625 11.746094 L 16.121094 12.035156 L 14.9375 10.941406 C 14.828125 10.867188 14.707031 10.773438 14.570312 10.667969 L 14.480469 10.605469 L 11.257812 10.394531 L 11.378906 10.941406 C 11.394531 11.019531 11.410156 11.0625 11.441406 11.125 L 12.109375 12.523438 L 11.183594 12.355469 L 11.183594 16.730469 L 12.0625 16.578125 L 11.441406 17.960938 L 11.410156 18.023438 C 11.378906 18.082031 11.363281 18.128906 11.351562 18.203125 L 11.257812 18.75 L 14.449219 18.539062 L 14.539062 18.476562 C 14.691406 18.386719 14.800781 18.28125 14.921875 18.191406 L 16.136719 17.125 L 20.300781 17.917969 C 23.140625 18.449219 26.042969 17.671875 28.214844 15.773438 L 28.703125 15.347656 C 28.929688 15.152344 29.066406 14.863281 29.066406 14.589844 Z M 27.667969 15.136719 C 25.679688 16.851562 23.050781 17.566406 20.464844 17.082031 L 15.894531 16.183594 L 14.359375 17.535156 C 14.3125 17.582031 14.238281 17.628906 14.175781 17.6875 L 12.488281 17.792969 L 13.234375 16.167969 L 13.554688 15.484375 L 12.035156 15.757812 L 12.046875 13.402344 L 13.613281 13.660156 L 12.503906 11.335938 L 14.207031 11.457031 C 14.28125 11.503906 14.328125 11.550781 14.375 11.59375 L 15.863281 12.960938 L 16.578125 12.824219 L 20.453125 12.082031 C 23.050781 11.609375 25.679688 12.324219 27.652344 14.027344 L 28.15625 14.46875 C 28.199219 14.511719 28.214844 14.558594 28.214844 14.589844 C 28.214844 14.617188 28.199219 14.664062 28.15625 14.710938 Z M 27.667969 15.136719 " fill-opacity="1" fill-rule="nonzero"/></g></g></g><g clip-path="url(#9a7f435c84)"><g clip-path="url(#e76ed82d27)"><g clip-path="url(#83eb2dc3f4)"><path fill="#ffffff" d="M 22.199219 15.042969 C 22.273438 15.300781 22.394531 15.546875 22.609375 15.757812 C 23.230469 16.382812 24.265625 16.382812 24.886719 15.757812 C 25.511719 15.136719 25.511719 14.101562 24.886719 13.480469 C 24.265625 12.855469 23.230469 12.855469 22.609375 13.480469 C 22.410156 13.675781 22.273438 13.933594 22.199219 14.195312 L 16.152344 14.191406 L 16.152344 15.042969 Z M 24.28125 14.085938 C 24.570312 14.375 24.570312 14.863281 24.28125 15.152344 C 23.992188 15.4375 23.503906 15.4375 23.21875 15.152344 C 22.929688 14.863281 22.929688 14.375 23.21875 14.085938 C 23.503906 13.796875 23.992188 13.796875 24.28125 14.085938 Z M 24.28125 14.085938 " fill-opacity="1" fill-rule="nonzero"/></g></g></g></svg>