<svg xmlns="http://www.w3.org/2000/svg" xmlns:xlink="http://www.w3.org/1999/xlink" width="70" zoomAndPan="magnify" viewBox="0 0 52.5 30.000001" height="40" preserveAspectRatio="xMidYMid meet" version="1.0"><defs><clipPath id="fb9d686a21"><path d="M 0.605469 13 L 9 13 L 9 16 L 0.605469 16 Z M 0.605469 13 " clip-rule="nonzero"/></clipPath><clipPath id="5be2756e07"><path d="M 19.0625 -17.660156 L 51.394531 14.671875 L 19.574219 46.492188 L -12.757812 14.160156 Z M 19.0625 -17.660156 " clip-rule="nonzero"/></clipPath><clipPath id="2ee3d9cfa0"><path d="M 19.0625 -17.660156 L 51.394531 14.671875 L 19.574219 46.492188 L -12.757812 14.160156 Z M 19.0625 -17.660156 " clip-rule="nonzero"/></clipPath><clipPath id="8b8e5b2ad8"><path d="M 19.0625 -17.660156 L 51.394531 14.671875 L 19.574219 46.492188 L -12.757812 14.160156 Z M 19.0625 -17.660156 " clip-rule="nonzero"/></clipPath><clipPath id="1bef7cc091"><path d="M 0.605469 9 L 9 9 L 9 12 L 0.605469 12 Z M 0.605469 9 " clip-rule="nonzero"/></clipPath><clipPath id="2115c49f96"><path d="M 19.0625 -17.660156 L 51.394531 14.671875 L 19.574219 46.492188 L -12.757812 14.160156 Z M 19.0625 -17.660156 " clip-rule="nonzero"/></clipPath><clipPath id="11cf18efba"><path d="M 19.0625 -17.660156 L 51.394531 14.671875 L 19.574219 46.492188 L -12.757812 14.160156 Z M 19.0625 -17.660156 " clip-rule="nonzero"/></clipPath><clipPath id="05de30391f"><path d="M 19.0625 -17.660156 L 51.394531 14.671875 L 19.574219 46.492188 L -12.757812 14.160156 Z M 19.0625 -17.660156 " clip-rule="nonzero"/></clipPath><clipPath id="ff950bdb6f"><path d="M 0.605469 17 L 9 17 L 9 20 L 0.605469 20 Z M 0.605469 17 " clip-rule="nonzero"/></clipPath><clipPath id="cc0dd8e399"><path d="M 19.0625 -17.660156 L 51.394531 14.671875 L 19.574219 46.492188 L -12.757812 14.160156 Z M 19.0625 -17.660156 " clip-rule="nonzero"/></clipPath><clipPath id="09a1e2f66b"><path d="M 19.0625 -17.660156 L 51.394531 14.671875 L 19.574219 46.492188 L -12.757812 14.160156 Z M 19.0625 -17.660156 " clip-rule="nonzero"/></clipPath><clipPath id="b0ec635028"><path d="M 19.0625 -17.660156 L 51.394531 14.671875 L 19.574219 46.492188 L -12.757812 14.160156 Z M 19.0625 -17.660156 " clip-rule="nonzero"/></clipPath><clipPath id="9f9f7bbcaf"><path d="M 10 5 L 51 5 L 51 24 L 10 24 Z M 10 5 " clip-rule="nonzero"/></clipPath><clipPath id="ebb6bd5e49"><path d="M 19.0625 -17.660156 L 51.394531 14.671875 L 19.574219 46.492188 L -12.757812 14.160156 Z M 19.0625 -17.660156 " clip-rule="nonzero"/></clipPath><clipPath id="739b6b47d5"><path d="M 19.0625 -17.660156 L 51.394531 14.671875 L 19.574219 46.492188 L -12.757812 14.160156 Z M 19.0625 -17.660156 " clip-rule="nonzero"/></clipPath><clipPath id="12af039c64"><path d="M 19.0625 -17.660156 L 51.394531 14.671875 L 19.574219 46.492188 L -12.757812 14.160156 Z M 19.0625 -17.660156 " clip-rule="nonzero"/></clipPath><clipPath id="b732afff20"><path d="M 21 11 L 43 11 L 43 19 L 21 19 Z M 21 11 " clip-rule="nonzero"/></clipPath><clipPath id="52ff85a634"><path d="M 19.0625 -17.660156 L 51.394531 14.671875 L 19.574219 46.492188 L -12.757812 14.160156 Z M 19.0625 -17.660156 " clip-rule="nonzero"/></clipPath><clipPath id="dad4ff553a"><path d="M 19.0625 -17.660156 L 51.394531 14.671875 L 19.574219 46.492188 L -12.757812 14.160156 Z M 19.0625 -17.660156 " clip-rule="nonzero"/></clipPath><clipPath id="58924e24c3"><path d="M 19.0625 -17.660156 L 51.394531 14.671875 L 19.574219 46.492188 L -12.757812 14.160156 Z M 19.0625 -17.660156 " clip-rule="nonzero"/></clipPath></defs><g clip-path="url(#fb9d686a21)"><g clip-path="url(#5be2756e07)"><g clip-path="url(#2ee3d9cfa0)"><g clip-path="url(#8b8e5b2ad8)"><path fill="#000000" d="M -11.726562 13.277344 L 8.722656 13.335938 L 8.726562 15.230469 L -11.722656 15.175781 Z M -11.726562 13.277344 " fill-opacity="1" fill-rule="nonzero"/></g></g></g></g><g clip-path="url(#1bef7cc091)"><g clip-path="url(#2115c49f96)"><g clip-path="url(#11cf18efba)"><g clip-path="url(#05de30391f)"><path fill="#000000" d="M -0.339844 9.28125 L 8.722656 9.308594 L 8.726562 11.207031 L -0.335938 11.179688 Z M -0.339844 9.28125 " fill-opacity="1" fill-rule="nonzero"/></g></g></g></g><g clip-path="url(#ff950bdb6f)"><g clip-path="url(#cc0dd8e399)"><g clip-path="url(#09a1e2f66b)"><g clip-path="url(#b0ec635028)"><path fill="#000000" d="M -0.320312 17.335938 L 8.742188 17.359375 L 8.75 19.257812 L -0.3125 19.234375 Z M -0.320312 17.335938 " fill-opacity="1" fill-rule="nonzero"/></g></g></g></g><g clip-path="url(#9f9f7bbcaf)"><g clip-path="url(#ebb6bd5e49)"><g clip-path="url(#739b6b47d5)"><g clip-path="url(#12af039c64)"><path fill="#000000" d="M 50.355469 14.636719 C 50.351562 13.964844 50.082031 13.359375 49.546875 12.957031 L 48.46875 12.015625 C 43.660156 7.875 37.28125 6.113281 30.976562 7.234375 L 25.140625 8.292969 L 21.753906 8.921875 L 19.128906 6.496094 C 18.894531 6.328125 18.625 6.128906 18.324219 5.890625 L 18.121094 5.757812 L 11.007812 5.269531 L 11.277344 6.476562 C 11.3125 6.644531 11.347656 6.746094 11.414062 6.878906 L 12.898438 9.96875 L 10.851562 9.59375 L 10.878906 19.257812 L 12.824219 18.929688 L 11.457031 21.976562 L 11.386719 22.113281 C 11.320312 22.246094 11.289062 22.347656 11.253906 22.515625 L 11.058594 23.722656 L 18.101562 23.269531 L 18.304688 23.136719 C 18.636719 22.9375 18.871094 22.703125 19.140625 22.503906 L 21.816406 20.160156 L 31.015625 21.929688 C 37.292969 23.121094 43.695312 21.429688 48.484375 17.25 L 49.554688 16.3125 C 50.058594 15.878906 50.355469 15.242188 50.355469 14.636719 Z M 47.273438 15.835938 C 42.886719 19.617188 37.085938 21.175781 31.378906 20.085938 L 21.273438 18.078125 L 17.894531 21.054688 C 17.792969 21.15625 17.625 21.257812 17.492188 21.390625 L 13.769531 21.613281 L 15.402344 18.03125 L 16.105469 16.523438 L 12.75 17.117188 L 12.769531 11.914062 L 16.226562 12.496094 L 13.761719 7.355469 L 17.523438 7.632812 C 17.691406 7.734375 17.792969 7.835938 17.890625 7.9375 L 21.1875 10.964844 L 22.765625 10.667969 L 31.316406 9.046875 C 37.050781 8.023438 42.859375 9.617188 47.230469 13.386719 L 48.339844 14.363281 C 48.441406 14.464844 48.476562 14.566406 48.476562 14.632812 C 48.476562 14.699219 48.441406 14.800781 48.34375 14.898438 Z M 47.273438 15.835938 " fill-opacity="1" fill-rule="nonzero"/></g></g></g></g><g clip-path="url(#b732afff20)"><g clip-path="url(#52ff85a634)"><g clip-path="url(#dad4ff553a)"><g clip-path="url(#58924e24c3)"><path fill="#000000" d="M 35.191406 15.601562 C 35.363281 16.171875 35.632812 16.710938 36.101562 17.179688 C 37.480469 18.558594 39.761719 18.566406 41.136719 17.195312 C 42.507812 15.824219 42.5 13.542969 41.121094 12.160156 C 39.742188 10.78125 37.460938 10.777344 36.089844 12.148438 C 35.652344 12.582031 35.351562 13.152344 35.1875 13.722656 L 21.832031 13.6875 L 21.839844 15.566406 Z M 39.78125 13.5 C 40.421875 14.140625 40.425781 15.214844 39.789062 15.847656 C 39.152344 16.484375 38.082031 16.480469 37.441406 15.84375 C 36.800781 15.203125 36.796875 14.128906 37.433594 13.492188 C 38.070312 12.859375 39.144531 12.859375 39.78125 13.5 Z M 39.78125 13.5 " fill-opacity="1" fill-rule="nonzero"/></g></g></g></g></svg>