<svg xmlns="http://www.w3.org/2000/svg" xmlns:xlink="http://www.w3.org/1999/xlink" width="120" zoomAndPan="magnify" viewBox="0 0 90 52.499999" height="70" preserveAspectRatio="xMidYMid meet" version="1.0"><defs><g/><clipPath id="fe8c8b1545"><path d="M 56 9.527344 L 86 9.527344 L 86 42.214844 L 56 42.214844 Z M 56 9.527344 " clip-rule="nonzero"/></clipPath></defs><g clip-path="url(#fe8c8b1545)"><path fill="#ffffff" d="M 71.078125 9.527344 C 67.886719 9.527344 66.394531 16.847656 66.082031 23.121094 C 65.140625 23.75 64.199219 24.375 63.335938 25.003906 C 59.128906 21.683594 57.769531 19.253906 58.160156 18.546875 C 58.394531 18.152344 59.78125 17.710938 63.414062 18.753906 C 63.832031 18.886719 64.277344 18.652344 64.382812 18.234375 C 64.515625 17.816406 64.277344 17.371094 63.859375 17.265625 C 60.070312 16.167969 57.636719 16.324219 56.800781 17.761719 C 55.441406 20.140625 59.546875 23.984375 62.054688 25.996094 C 58.1875 29.109375 55.703125 32.300781 56.800781 34.234375 C 57.269531 35.042969 58.265625 35.460938 59.703125 35.460938 C 60.828125 35.460938 62.214844 35.226562 63.835938 34.730469 C 64.253906 34.601562 64.488281 34.179688 64.355469 33.761719 C 64.226562 33.34375 63.808594 33.109375 63.390625 33.242188 C 59.753906 34.3125 58.371094 33.84375 58.132812 33.449219 C 57.925781 33.082031 58.160156 31.800781 60.488281 29.476562 C 62.605469 27.332031 65.742188 25.03125 69.296875 22.964844 C 72.855469 20.898438 76.4375 19.355469 79.339844 18.574219 C 82.527344 17.734375 83.730469 18.152344 83.941406 18.519531 C 84.332031 19.226562 82.972656 21.65625 78.761719 24.976562 C 77.664062 24.167969 76.515625 23.382812 75.339844 22.652344 C 74.972656 22.414062 74.476562 22.519531 74.265625 22.914062 C 74.03125 23.277344 74.136719 23.777344 74.527344 23.984375 C 81.585938 28.402344 84.59375 32.378906 83.964844 33.421875 C 83.496094 34.234375 79.652344 34.207031 72.75 30.835938 C 73.039062 30.679688 73.296875 30.519531 73.585938 30.363281 C 74.605469 29.761719 75.625 29.136719 76.59375 28.507812 C 76.960938 28.273438 77.0625 27.777344 76.800781 27.410156 C 76.539062 27.042969 76.070312 26.9375 75.703125 27.199219 C 74.761719 27.828125 73.796875 28.429688 72.777344 29.003906 C 72.070312 29.398438 71.363281 29.789062 70.65625 30.15625 C 70.265625 30.363281 70.136719 30.835938 70.316406 31.203125 C 70.371094 31.304688 70.449219 31.382812 70.527344 31.4375 C 70.554688 31.460938 70.578125 31.488281 70.632812 31.515625 L 70.65625 31.539062 C 73.953125 33.265625 77.195312 34.523438 79.730469 35.097656 C 80.75 35.332031 81.640625 35.4375 82.398438 35.4375 C 83.835938 35.4375 84.804688 35.019531 85.273438 34.207031 C 86.476562 32.273438 83.914062 29.058594 80.097656 25.996094 C 82.632812 23.957031 86.738281 20.140625 85.351562 17.761719 C 83.679688 14.886719 75.652344 17.527344 68.566406 21.605469 C 68.277344 21.761719 68.015625 21.917969 67.730469 22.101562 C 68.226562 14.992188 69.976562 11.09375 71.078125 11.09375 C 71.519531 11.09375 72.621094 12.0625 73.507812 15.75 C 73.613281 16.167969 74.03125 16.429688 74.449219 16.324219 C 74.867188 16.21875 75.128906 15.800781 75.023438 15.382812 C 74.109375 11.539062 72.722656 9.527344 71.078125 9.527344 Z M 66.8125 27.617188 C 66.371094 27.644531 66.054688 28.011719 66.054688 28.429688 C 66.214844 32.167969 66.734375 35.59375 67.519531 38.105469 C 68.4375 41.007812 69.636719 42.46875 71.078125 42.46875 C 72.722656 42.46875 74.109375 40.457031 75.023438 36.613281 C 75.128906 36.195312 74.867188 35.777344 74.449219 35.671875 C 74.03125 35.566406 73.613281 35.828125 73.507812 36.246094 C 72.621094 39.933594 71.519531 40.902344 71.078125 40.902344 C 69.875 40.902344 67.964844 36.429688 67.625 28.378906 C 67.597656 27.933594 67.234375 27.617188 66.8125 27.617188 Z M 66.8125 27.617188 " fill-opacity="1" fill-rule="nonzero"/></g><g fill="#ffffff" fill-opacity="1"><g transform="translate(11.102998, 23.850443)"><g><path d="M 8.078125 -9.890625 C 8.398438 -9.710938 8.609375 -9.457031 8.703125 -9.125 C 8.503906 -8.03125 8.328125 -6.945312 8.171875 -5.875 C 8.015625 -4.800781 7.863281 -3.898438 7.71875 -3.171875 C 7.570312 -2.453125 7.472656 -1.910156 7.421875 -1.546875 C 7.367188 -1.179688 7.304688 -0.820312 7.234375 -0.46875 L 7.15625 -0.15625 C 7.132812 -0.0507812 7.113281 0.046875 7.09375 0.140625 C 7.070312 0.234375 7.050781 0.332031 7.03125 0.4375 C 6.757812 0.75 6.390625 0.90625 5.921875 0.90625 C 5.429688 0.90625 5.039062 0.78125 4.75 0.53125 C 4.570312 0.394531 4.539062 0.109375 4.65625 -0.328125 C 4.707031 -0.503906 4.738281 -0.734375 4.75 -1.015625 C 4.757812 -1.296875 4.773438 -1.523438 4.796875 -1.703125 L 4.796875 -1.734375 C 4.503906 -1.628906 4.238281 -1.488281 4 -1.3125 C 3.769531 -1.144531 3.625 -1.039062 3.5625 -1 C 3.507812 -0.957031 3.4375 -0.921875 3.34375 -0.890625 C 3.25 -0.867188 3.160156 -0.851562 3.078125 -0.84375 C 2.890625 -0.832031 2.765625 -0.804688 2.703125 -0.765625 C 2.140625 0.253906 1.632812 0.820312 1.1875 0.9375 C 0.90625 1.019531 0.617188 1.039062 0.328125 1 C 0.046875 0.957031 -0.171875 0.789062 -0.328125 0.5 C -0.640625 0.207031 -0.566406 -0.585938 -0.109375 -1.890625 C 0.148438 -2.585938 0.515625 -3.421875 0.984375 -4.390625 C 1.453125 -5.359375 1.90625 -6.203125 2.34375 -6.921875 C 3.289062 -8.460938 4.328125 -9.765625 5.453125 -10.828125 C 5.640625 -10.910156 5.835938 -11 6.046875 -11.09375 C 6.265625 -11.195312 6.476562 -11.253906 6.6875 -11.265625 C 6.894531 -11.273438 7.109375 -11.25 7.328125 -11.1875 C 7.554688 -11.132812 7.75 -11.050781 7.90625 -10.9375 C 8.269531 -10.65625 8.328125 -10.304688 8.078125 -9.890625 Z M 4.953125 -6.0625 C 4.742188 -5.476562 4.535156 -4.9375 4.328125 -4.4375 C 4.128906 -3.945312 3.957031 -3.519531 3.8125 -3.15625 L 4.96875 -3.203125 C 5.039062 -3.816406 5.125 -4.429688 5.21875 -5.046875 C 5.320312 -5.660156 5.414062 -6.273438 5.5 -6.890625 Z M 4.546875 -3.140625 C 4.679688 -3.140625 4.820312 -3.148438 4.96875 -3.171875 L 4.96875 -3.1875 C 4.832031 -3.175781 4.710938 -3.164062 4.609375 -3.15625 C 4.503906 -3.144531 4.484375 -3.140625 4.546875 -3.140625 Z M 4.546875 -3.140625 "/></g></g><g transform="translate(19.330078, 23.850443)"><g><path d="M 2.421875 0.84375 C 1.921875 0.863281 1.460938 0.800781 1.046875 0.65625 C 0.640625 0.519531 0.304688 0.328125 0.046875 0.078125 C -0.203125 -0.160156 -0.363281 -0.441406 -0.4375 -0.765625 C -0.507812 -1.085938 -0.453125 -1.421875 -0.265625 -1.765625 C -0.015625 -2.171875 0.488281 -2.289062 1.25 -2.125 C 1.820312 -2.007812 2.21875 -1.945312 2.4375 -1.9375 C 2.65625 -1.925781 2.84375 -1.957031 3 -2.03125 C 3.71875 -2.257812 4.117188 -2.507812 4.203125 -2.78125 C 4.265625 -2.988281 4.140625 -3.226562 3.828125 -3.5 C 3.703125 -3.613281 3.5625 -3.726562 3.40625 -3.84375 C 3.25 -3.96875 3.113281 -4.085938 3 -4.203125 C 2.519531 -4.566406 2.140625 -4.984375 1.859375 -5.453125 C 1.578125 -5.921875 1.460938 -6.429688 1.515625 -6.984375 C 1.566406 -7.546875 1.660156 -8.007812 1.796875 -8.375 C 1.929688 -8.738281 2.101562 -9.0625 2.3125 -9.34375 C 2.664062 -9.832031 3.128906 -10.234375 3.703125 -10.546875 C 4.367188 -10.890625 4.898438 -11.109375 5.296875 -11.203125 C 6.085938 -11.378906 6.882812 -11.394531 7.6875 -11.25 C 7.957031 -11.195312 8.191406 -11.101562 8.390625 -10.96875 C 8.585938 -10.832031 8.78125 -10.691406 8.96875 -10.546875 C 9.3125 -10.210938 9.394531 -9.867188 9.21875 -9.515625 C 9.15625 -9.359375 9.050781 -9.226562 8.90625 -9.125 C 8.757812 -9.03125 8.601562 -8.976562 8.4375 -8.96875 C 8.457031 -8.707031 8.410156 -8.515625 8.296875 -8.390625 C 8.066406 -8.171875 7.675781 -8.023438 7.125 -7.953125 C 6.320312 -8.015625 5.78125 -7.972656 5.5 -7.828125 C 5.164062 -7.648438 5.046875 -7.269531 5.140625 -6.6875 C 5.160156 -6.5625 5.238281 -6.425781 5.375 -6.28125 C 5.519531 -6.144531 5.6875 -6 5.875 -5.84375 C 6.0625 -5.695312 6.257812 -5.523438 6.46875 -5.328125 C 6.675781 -5.128906 6.859375 -4.90625 7.015625 -4.65625 C 7.566406 -3.757812 7.523438 -2.710938 6.890625 -1.515625 C 6.421875 -0.617188 5.625 0.0507812 4.5 0.5 C 3.914062 0.726562 3.222656 0.84375 2.421875 0.84375 Z M 2.421875 0.84375 "/></g></g><g transform="translate(27.382113, 23.850443)"><g><path d="M 5.078125 -3.734375 C 4.816406 -2.972656 4.550781 -2.242188 4.28125 -1.546875 C 4.007812 -0.847656 3.78125 -0.316406 3.59375 0.046875 C 3.414062 0.410156 3.257812 0.660156 3.125 0.796875 C 2.988281 0.929688 2.847656 1.023438 2.703125 1.078125 C 2.566406 1.128906 2.425781 1.148438 2.28125 1.140625 C 2.144531 1.128906 2.003906 1.117188 1.859375 1.109375 C 1.035156 0.984375 0.78125 0.394531 1.09375 -0.65625 C 1.300781 -1.488281 1.46875 -2.171875 1.59375 -2.703125 C 1.71875 -3.234375 1.820312 -3.671875 1.90625 -4.015625 C 1.988281 -4.359375 2.054688 -4.644531 2.109375 -4.875 C 2.171875 -5.101562 2.234375 -5.328125 2.296875 -5.546875 C 2.367188 -5.773438 2.457031 -6.03125 2.5625 -6.3125 C 2.664062 -6.601562 2.800781 -6.976562 2.96875 -7.4375 C 2.59375 -7.394531 2.257812 -7.4375 1.96875 -7.5625 C 1.539062 -7.75 1.363281 -8.144531 1.4375 -8.75 C 1.476562 -9.03125 1.628906 -9.296875 1.890625 -9.546875 C 2.023438 -9.671875 2.1875 -9.804688 2.375 -9.953125 C 2.757812 -10.253906 3.515625 -10.578125 4.640625 -10.921875 C 5.804688 -11.265625 6.804688 -11.425781 7.640625 -11.40625 C 7.867188 -11.445312 8.101562 -11.421875 8.34375 -11.328125 C 8.582031 -11.234375 8.773438 -11.109375 8.921875 -10.953125 C 9.066406 -10.796875 9.140625 -10.625 9.140625 -10.4375 C 9.148438 -10.257812 9.03125 -10.097656 8.78125 -9.953125 C 8.664062 -9.878906 8.582031 -9.75 8.53125 -9.5625 C 8.488281 -9.382812 8.4375 -9.195312 8.375 -9 C 8.320312 -8.800781 8.238281 -8.617188 8.125 -8.453125 C 8.007812 -8.285156 7.832031 -8.1875 7.59375 -8.15625 C 7.46875 -8.09375 7.289062 -8.046875 7.0625 -8.015625 C 6.832031 -7.984375 6.679688 -7.957031 6.609375 -7.9375 C 6.535156 -7.925781 6.492188 -7.898438 6.484375 -7.859375 C 6.304688 -7.347656 6.09375 -6.722656 5.84375 -5.984375 C 5.601562 -5.253906 5.347656 -4.503906 5.078125 -3.734375 Z M 3.109375 -7.609375 C 3.085938 -7.609375 3.078125 -7.601562 3.078125 -7.59375 C 3.078125 -7.59375 3.085938 -7.59375 3.109375 -7.59375 Z M 3.109375 -7.609375 "/></g></g><g transform="translate(34.704798, 23.850443)"><g><path d="M 2.546875 0.046875 C 2.460938 0.429688 2.164062 0.671875 1.65625 0.765625 C 1.175781 0.847656 0.722656 0.789062 0.296875 0.59375 C -0.179688 0.394531 -0.390625 0.109375 -0.328125 -0.265625 C -0.390625 -0.828125 -0.0976562 -2.050781 0.546875 -3.9375 C 1.523438 -6.769531 2.5 -8.796875 3.46875 -10.015625 C 3.726562 -10.328125 3.945312 -10.523438 4.125 -10.609375 C 4.300781 -10.703125 4.503906 -10.785156 4.734375 -10.859375 C 4.972656 -10.941406 5.21875 -11.019531 5.46875 -11.09375 C 5.976562 -11.226562 6.457031 -11.320312 6.90625 -11.375 C 7.363281 -11.425781 7.769531 -11.367188 8.125 -11.203125 C 8.488281 -11.046875 8.769531 -10.8125 8.96875 -10.5 C 9.164062 -10.195312 9.285156 -9.832031 9.328125 -9.40625 C 9.378906 -8.976562 9.363281 -8.535156 9.28125 -8.078125 C 9.207031 -7.617188 9.066406 -7.148438 8.859375 -6.671875 C 8.660156 -6.203125 8.40625 -5.765625 8.09375 -5.359375 C 7.414062 -4.460938 6.617188 -3.882812 5.703125 -3.625 L 5.859375 -3.375 C 5.984375 -3.175781 6.132812 -2.957031 6.3125 -2.71875 C 6.488281 -2.488281 6.664062 -2.253906 6.84375 -2.015625 C 7.03125 -1.773438 7.195312 -1.53125 7.34375 -1.28125 C 7.488281 -1.039062 7.59375 -0.8125 7.65625 -0.59375 C 7.8125 -0.125 7.691406 0.21875 7.296875 0.4375 C 6.972656 0.632812 6.71875 0.679688 6.53125 0.578125 C 6.457031 0.535156 6.378906 0.476562 6.296875 0.40625 C 6.222656 0.332031 6.117188 0.269531 5.984375 0.21875 C 5.410156 0.382812 4.972656 0.238281 4.671875 -0.21875 C 4.484375 -0.507812 4.335938 -0.773438 4.234375 -1.015625 C 4.140625 -1.265625 4.0625 -1.472656 4 -1.640625 C 3.820312 -1.992188 3.625 -2.300781 3.40625 -2.5625 C 3.289062 -2.300781 3.164062 -1.96875 3.03125 -1.5625 C 2.863281 -1.039062 2.679688 -0.503906 2.484375 0.046875 Z M 5.5 -8.453125 C 5.3125 -8.035156 5.1875 -7.742188 5.125 -7.578125 C 4.988281 -7.242188 4.835938 -6.878906 4.671875 -6.484375 C 4.640625 -6.265625 4.613281 -6.113281 4.59375 -6.03125 L 4.796875 -6.234375 L 5.046875 -6.34375 C 5.222656 -6.445312 5.382812 -6.535156 5.53125 -6.609375 C 5.675781 -6.691406 5.804688 -6.789062 5.921875 -6.90625 C 6.148438 -7.125 6.347656 -7.488281 6.515625 -8 C 6.515625 -8.09375 6.53125 -8.1875 6.5625 -8.28125 C 6.59375 -8.382812 6.613281 -8.484375 6.625 -8.578125 C 6.664062 -8.796875 6.578125 -8.945312 6.359375 -9.03125 C 6.171875 -9.050781 5.929688 -8.890625 5.640625 -8.546875 C 5.578125 -8.484375 5.53125 -8.453125 5.5 -8.453125 Z M 5.5 -8.453125 "/></g></g><g transform="translate(43.194444, 23.850443)"><g><path d="M 2.96875 -9.65625 C 3.570312 -10.363281 4.25 -10.800781 5 -10.96875 C 5.519531 -11.101562 6.007812 -11.085938 6.46875 -10.921875 C 6.820312 -11.296875 7.285156 -11.429688 7.859375 -11.328125 C 8.390625 -11.222656 8.835938 -10.925781 9.203125 -10.4375 C 9.222656 -10.363281 9.265625 -10.257812 9.328125 -10.125 C 9.390625 -9.988281 9.453125 -9.835938 9.515625 -9.671875 C 9.941406 -8.679688 9.976562 -7.378906 9.625 -5.765625 C 9.175781 -3.765625 8.378906 -2.066406 7.234375 -0.671875 C 6.890625 -0.242188 6.5 0.109375 6.0625 0.390625 C 5.351562 0.929688 4.515625 1.171875 3.546875 1.109375 C 2.941406 1.078125 2.4375 0.925781 2.03125 0.65625 C 0.40625 -0.144531 -0.125 -1.828125 0.4375 -4.390625 C 0.90625 -6.492188 1.75 -8.25 2.96875 -9.65625 Z M 3.140625 -1.90625 L 3.125 -1.828125 L 3.15625 -1.65625 C 3.207031 -1.363281 3.300781 -1.132812 3.4375 -0.96875 C 3.582031 -0.8125 3.695312 -0.710938 3.78125 -0.671875 C 3.875 -0.742188 3.96875 -0.816406 4.0625 -0.890625 C 4.164062 -0.960938 4.253906 -1.046875 4.328125 -1.140625 C 4.992188 -1.953125 5.507812 -3.019531 5.875 -4.34375 C 6.25 -5.664062 6.390625 -6.894531 6.296875 -8.03125 C 5.910156 -7.539062 5.507812 -6.976562 5.09375 -6.34375 C 4.675781 -5.71875 4.34375 -5.179688 4.09375 -4.734375 C 3.539062 -3.691406 3.222656 -2.75 3.140625 -1.90625 Z M 3.140625 -1.90625 "/></g></g></g><g fill="#ffffff" fill-opacity="1"><g transform="translate(14.815395, 39.254337)"><g><path d="M 7.703125 -11 L 7.765625 -10.984375 C 8.003906 -10.835938 8.210938 -10.675781 8.390625 -10.5 C 8.578125 -10.320312 8.742188 -10.128906 8.890625 -9.921875 C 9.046875 -9.722656 9.164062 -9.507812 9.25 -9.28125 C 9.625 -8.382812 9.304688 -7.382812 8.296875 -6.28125 C 7.859375 -5.8125 7.375 -5.410156 6.84375 -5.078125 C 6.976562 -4.984375 7.101562 -4.910156 7.21875 -4.859375 C 7.34375 -4.816406 7.515625 -4.734375 7.734375 -4.609375 C 7.960938 -4.492188 8.113281 -4.265625 8.1875 -3.921875 C 8.257812 -3.585938 8.242188 -3.210938 8.140625 -2.796875 C 8.035156 -2.378906 7.847656 -1.945312 7.578125 -1.5 C 7.316406 -1.0625 6.96875 -0.671875 6.53125 -0.328125 C 5.5625 0.484375 4.4375 0.828125 3.15625 0.703125 C 2.96875 0.703125 2.847656 0.6875 2.796875 0.65625 C 2.753906 0.625 2.71875 0.597656 2.6875 0.578125 C 2.65625 0.554688 2.59375 0.546875 2.5 0.546875 C 2.25 0.734375 1.96875 0.851562 1.65625 0.90625 C 1.351562 0.957031 1.0625 0.929688 0.78125 0.828125 C 0.5 0.734375 0.265625 0.566406 0.078125 0.328125 C -0.109375 0.0976562 -0.203125 -0.203125 -0.203125 -0.578125 C -0.171875 -0.835938 -0.125 -1.039062 -0.0625 -1.1875 C -0.09375 -1.269531 -0.109375 -1.375 -0.109375 -1.5 C 0.222656 -3.257812 0.535156 -4.609375 0.828125 -5.546875 C 1.421875 -7.398438 2.066406 -8.800781 2.765625 -9.75 C 3.328125 -10.550781 4.109375 -11.066406 5.109375 -11.296875 C 6.066406 -11.515625 6.929688 -11.414062 7.703125 -11 Z M 3.171875 -0.8125 C 3.285156 -0.84375 3.382812 -0.847656 3.46875 -0.828125 C 3.550781 -0.816406 3.648438 -0.820312 3.765625 -0.84375 C 4.046875 -0.875 4.425781 -1.050781 4.90625 -1.375 C 5.207031 -1.675781 5.367188 -1.972656 5.390625 -2.265625 C 5.410156 -2.554688 5.363281 -2.742188 5.25 -2.828125 C 5.144531 -2.910156 5 -2.953125 4.8125 -2.953125 C 4.632812 -2.953125 4.4375 -2.921875 4.21875 -2.859375 C 4 -2.804688 3.789062 -2.773438 3.59375 -2.765625 L 3.59375 -2.75 C 3.539062 -2.550781 3.488281 -2.378906 3.4375 -2.234375 C 3.394531 -2.085938 3.351562 -1.945312 3.3125 -1.8125 C 3.226562 -1.488281 3.160156 -1.15625 3.109375 -0.8125 Z M 5.875 -8.40625 C 5.582031 -8.445312 5.269531 -8.21875 4.9375 -7.71875 C 4.71875 -7.40625 4.550781 -6.929688 4.4375 -6.296875 C 4.644531 -6.390625 4.847656 -6.46875 5.046875 -6.53125 C 5.242188 -6.59375 5.429688 -6.664062 5.609375 -6.75 C 6.035156 -6.925781 6.34375 -7.144531 6.53125 -7.40625 C 6.738281 -7.664062 6.804688 -7.882812 6.734375 -8.0625 C 6.609375 -8.21875 6.414062 -8.359375 6.15625 -8.484375 C 6.082031 -8.410156 5.988281 -8.382812 5.875 -8.40625 Z M 5.65625 -8.46875 L 5.703125 -8.46875 Z M 5.65625 -8.46875 "/></g></g><g transform="translate(23.348802, 39.254337)"><g><path d="M 5.0625 0.703125 C 4.863281 0.753906 4.671875 0.78125 4.484375 0.78125 C 4.296875 0.789062 4.109375 0.800781 3.921875 0.8125 C 3.734375 0.820312 3.472656 0.828125 3.140625 0.828125 C 2.804688 0.828125 2.3125 0.816406 1.65625 0.796875 C 1.5 0.804688 1.34375 0.8125 1.1875 0.8125 C 1.03125 0.8125 0.882812 0.785156 0.75 0.734375 C 0.445312 0.609375 0.238281 0.316406 0.125 -0.140625 C 0.0820312 -0.359375 0.03125 -0.507812 -0.03125 -0.59375 C -0.09375 -0.6875 -0.144531 -0.769531 -0.1875 -0.84375 C -0.28125 -1 -0.269531 -1.253906 -0.15625 -1.609375 C -0.0507812 -1.972656 0.0859375 -2.421875 0.265625 -2.953125 C 0.441406 -3.484375 0.640625 -4.046875 0.859375 -4.640625 C 1.390625 -6.046875 1.863281 -7.164062 2.28125 -8 C 2.445312 -8.363281 2.585938 -8.679688 2.703125 -8.953125 C 2.828125 -9.234375 2.9375 -9.472656 3.03125 -9.671875 C 3.132812 -9.867188 3.1875 -9.972656 3.1875 -9.984375 C 3.28125 -10.347656 3.65625 -10.660156 4.3125 -10.921875 C 4.9375 -11.179688 5.507812 -11.25 6.03125 -11.125 C 6.601562 -10.976562 6.851562 -10.597656 6.78125 -9.984375 C 6.644531 -9.378906 6.441406 -8.773438 6.171875 -8.171875 C 5.910156 -7.566406 5.609375 -6.929688 5.265625 -6.265625 C 4.929688 -5.609375 4.5625 -4.910156 4.15625 -4.171875 C 3.757812 -3.429688 3.367188 -2.628906 2.984375 -1.765625 C 2.972656 -1.722656 2.988281 -1.6875 3.03125 -1.65625 C 3.15625 -1.664062 3.332031 -1.703125 3.5625 -1.765625 C 3.789062 -1.835938 4.03125 -1.898438 4.28125 -1.953125 C 4.53125 -2.015625 4.773438 -2.046875 5.015625 -2.046875 C 5.265625 -2.046875 5.472656 -1.984375 5.640625 -1.859375 C 5.628906 -1.679688 5.671875 -1.539062 5.765625 -1.4375 C 5.859375 -1.332031 5.957031 -1.234375 6.0625 -1.140625 C 6.300781 -0.890625 6.316406 -0.550781 6.109375 -0.125 C 5.921875 0.28125 5.570312 0.554688 5.0625 0.703125 Z M 5.0625 0.703125 "/></g></g><g transform="translate(30.160941, 39.254337)"><g><path d="M 2.96875 -9.65625 C 3.570312 -10.363281 4.25 -10.800781 5 -10.96875 C 5.519531 -11.101562 6.007812 -11.085938 6.46875 -10.921875 C 6.820312 -11.296875 7.285156 -11.429688 7.859375 -11.328125 C 8.390625 -11.222656 8.835938 -10.925781 9.203125 -10.4375 C 9.222656 -10.363281 9.265625 -10.257812 9.328125 -10.125 C 9.390625 -9.988281 9.453125 -9.835938 9.515625 -9.671875 C 9.941406 -8.679688 9.976562 -7.378906 9.625 -5.765625 C 9.175781 -3.765625 8.378906 -2.066406 7.234375 -0.671875 C 6.890625 -0.242188 6.5 0.109375 6.0625 0.390625 C 5.351562 0.929688 4.515625 1.171875 3.546875 1.109375 C 2.941406 1.078125 2.4375 0.925781 2.03125 0.65625 C 0.40625 -0.144531 -0.125 -1.828125 0.4375 -4.390625 C 0.90625 -6.492188 1.75 -8.25 2.96875 -9.65625 Z M 3.140625 -1.90625 L 3.125 -1.828125 L 3.15625 -1.65625 C 3.207031 -1.363281 3.300781 -1.132812 3.4375 -0.96875 C 3.582031 -0.8125 3.695312 -0.710938 3.78125 -0.671875 C 3.875 -0.742188 3.96875 -0.816406 4.0625 -0.890625 C 4.164062 -0.960938 4.253906 -1.046875 4.328125 -1.140625 C 4.992188 -1.953125 5.507812 -3.019531 5.875 -4.34375 C 6.25 -5.664062 6.390625 -6.894531 6.296875 -8.03125 C 5.910156 -7.539062 5.507812 -6.976562 5.09375 -6.34375 C 4.675781 -5.71875 4.34375 -5.179688 4.09375 -4.734375 C 3.539062 -3.691406 3.222656 -2.75 3.140625 -1.90625 Z M 3.140625 -1.90625 "/></g></g><g transform="translate(39.482047, 39.254337)"><g><path d="M 5.796875 -11.015625 C 7.191406 -11.296875 8.28125 -11.125 9.0625 -10.5 C 9.4375 -10.195312 9.679688 -9.753906 9.796875 -9.171875 C 9.921875 -8.597656 9.859375 -7.957031 9.609375 -7.25 C 9.492188 -6.914062 9.304688 -6.664062 9.046875 -6.5 C 8.785156 -6.34375 8.515625 -6.25 8.234375 -6.21875 C 7.960938 -6.195312 7.710938 -6.234375 7.484375 -6.328125 C 7.265625 -6.421875 7.144531 -6.554688 7.125 -6.734375 L 6.984375 -7.015625 C 6.753906 -7.367188 6.351562 -7.414062 5.78125 -7.15625 C 5.28125 -6.925781 4.785156 -6.535156 4.296875 -5.984375 C 3.765625 -5.390625 3.421875 -4.851562 3.265625 -4.375 C 3.085938 -3.851562 3 -3.507812 3 -3.34375 C 2.988281 -2.96875 3.125 -2.632812 3.40625 -2.34375 C 3.8125 -2.082031 4.21875 -1.960938 4.625 -1.984375 C 5.03125 -2.015625 5.394531 -2.109375 5.71875 -2.265625 C 6.039062 -2.429688 6.300781 -2.613281 6.5 -2.8125 C 6.707031 -3.019531 6.8125 -3.164062 6.8125 -3.25 C 6.84375 -3.3125 6.875 -3.367188 6.90625 -3.421875 C 6.9375 -3.484375 6.957031 -3.546875 6.96875 -3.609375 C 6.9375 -3.609375 6.945312 -3.609375 7 -3.609375 C 7.0625 -3.617188 7.078125 -3.617188 7.046875 -3.609375 C 7.015625 -3.609375 7.03125 -3.601562 7.09375 -3.59375 L 7.1875 -3.5625 C 6.707031 -3.132812 6.242188 -3.046875 5.796875 -3.296875 C 5.617188 -3.398438 5.460938 -3.515625 5.328125 -3.640625 C 5.191406 -3.765625 5.066406 -3.820312 4.953125 -3.8125 C 4.734375 -3.925781 4.679688 -4.15625 4.796875 -4.5 C 4.847656 -4.632812 4.9375 -4.757812 5.0625 -4.875 C 5.195312 -5 5.367188 -5.085938 5.578125 -5.140625 C 6.546875 -5.554688 7.445312 -5.648438 8.28125 -5.421875 C 8.644531 -5.328125 8.894531 -5.128906 9.03125 -4.828125 C 9.175781 -4.535156 9.238281 -4.203125 9.21875 -3.828125 C 9.195312 -3.460938 9.113281 -3.085938 8.96875 -2.703125 C 8.832031 -2.328125 8.679688 -2.023438 8.515625 -1.796875 C 8.359375 -1.566406 8.128906 -1.296875 7.828125 -0.984375 C 7.535156 -0.679688 7.164062 -0.382812 6.71875 -0.09375 C 5.613281 0.625 4.4375 0.96875 3.1875 0.9375 C 1.363281 0.90625 0.285156 0.160156 -0.046875 -1.296875 C -0.148438 -1.765625 -0.195312 -2.289062 -0.1875 -2.875 C -0.09375 -4.570312 0.410156 -6.15625 1.328125 -7.625 C 1.765625 -8.320312 2.351562 -9.007812 3.09375 -9.6875 C 3.5625 -10.101562 4.085938 -10.425781 4.671875 -10.65625 C 4.984375 -10.78125 5.359375 -10.898438 5.796875 -11.015625 Z M 5.796875 -11.015625 "/></g></g></g></svg>