<svg xmlns="http://www.w3.org/2000/svg" xmlns:xlink="http://www.w3.org/1999/xlink" width="70" zoomAndPan="magnify" viewBox="0 0 52.5 30.000001" height="40" preserveAspectRatio="xMidYMid meet" version="1.0"><defs><clipPath id="7f46b3b72b"><path d="M 0.605469 13 L 9 13 L 9 16 L 0.605469 16 Z M 0.605469 13 " clip-rule="nonzero"/></clipPath><clipPath id="4c2f62c10a"><path d="M 19.0625 -17.660156 L 51.394531 14.671875 L 19.574219 46.492188 L -12.757812 14.160156 Z M 19.0625 -17.660156 " clip-rule="nonzero"/></clipPath><clipPath id="cde1ddb5d3"><path d="M 19.0625 -17.660156 L 51.394531 14.671875 L 19.574219 46.492188 L -12.757812 14.160156 Z M 19.0625 -17.660156 " clip-rule="nonzero"/></clipPath><clipPath id="0abbba7b7b"><path d="M 0.605469 9 L 9 9 L 9 12 L 0.605469 12 Z M 0.605469 9 " clip-rule="nonzero"/></clipPath><clipPath id="56a95e5735"><path d="M 19.0625 -17.660156 L 51.394531 14.671875 L 19.574219 46.492188 L -12.757812 14.160156 Z M 19.0625 -17.660156 " clip-rule="nonzero"/></clipPath><clipPath id="0115ea3e09"><path d="M 19.0625 -17.660156 L 51.394531 14.671875 L 19.574219 46.492188 L -12.757812 14.160156 Z M 19.0625 -17.660156 " clip-rule="nonzero"/></clipPath><clipPath id="384954c4b5"><path d="M 0.605469 17 L 9 17 L 9 20 L 0.605469 20 Z M 0.605469 17 " clip-rule="nonzero"/></clipPath><clipPath id="5901a5e289"><path d="M 19.0625 -17.660156 L 51.394531 14.671875 L 19.574219 46.492188 L -12.757812 14.160156 Z M 19.0625 -17.660156 " clip-rule="nonzero"/></clipPath><clipPath id="235885b33d"><path d="M 19.0625 -17.660156 L 51.394531 14.671875 L 19.574219 46.492188 L -12.757812 14.160156 Z M 19.0625 -17.660156 " clip-rule="nonzero"/></clipPath><clipPath id="7b79d8e636"><path d="M 10 5 L 51 5 L 51 24 L 10 24 Z M 10 5 " clip-rule="nonzero"/></clipPath><clipPath id="0a5f23d901"><path d="M 19.0625 -17.660156 L 51.394531 14.671875 L 19.574219 46.492188 L -12.757812 14.160156 Z M 19.0625 -17.660156 " clip-rule="nonzero"/></clipPath><clipPath id="8c98a7b364"><path d="M 19.0625 -17.660156 L 51.394531 14.671875 L 19.574219 46.492188 L -12.757812 14.160156 Z M 19.0625 -17.660156 " clip-rule="nonzero"/></clipPath><clipPath id="97b8aa46d4"><path d="M 21 11 L 43 11 L 43 19 L 21 19 Z M 21 11 " clip-rule="nonzero"/></clipPath><clipPath id="6c16c1e088"><path d="M 19.0625 -17.660156 L 51.394531 14.671875 L 19.574219 46.492188 L -12.757812 14.160156 Z M 19.0625 -17.660156 " clip-rule="nonzero"/></clipPath><clipPath id="25f6f610c9"><path d="M 19.0625 -17.660156 L 51.394531 14.671875 L 19.574219 46.492188 L -12.757812 14.160156 Z M 19.0625 -17.660156 " clip-rule="nonzero"/></clipPath></defs><g clip-path="url(#7f46b3b72b)"><g clip-path="url(#4c2f62c10a)"><g clip-path="url(#cde1ddb5d3)"><path fill="#ffffff" d="M -11.90625 13.457031 L 8.605469 13.457031 L 8.605469 15.359375 L -11.90625 15.359375 Z M -11.90625 13.457031 " fill-opacity="1" fill-rule="nonzero"/></g></g></g><g clip-path="url(#0abbba7b7b)"><g clip-path="url(#56a95e5735)"><g clip-path="url(#0115ea3e09)"><path fill="#ffffff" d="M -0.476562 9.417969 L 8.613281 9.417969 L 8.613281 11.320312 L -0.476562 11.320312 Z M -0.476562 9.417969 " fill-opacity="1" fill-rule="nonzero"/></g></g></g><g clip-path="url(#384954c4b5)"><g clip-path="url(#5901a5e289)"><g clip-path="url(#235885b33d)"><path fill="#ffffff" d="M -0.476562 17.496094 L 8.613281 17.496094 L 8.613281 19.398438 L -0.476562 19.398438 Z M -0.476562 17.496094 " fill-opacity="1" fill-rule="nonzero"/></g></g></g><g clip-path="url(#7b79d8e636)"><g clip-path="url(#0a5f23d901)"><g clip-path="url(#8c98a7b364)"><path fill="#ffffff" d="M 50.359375 14.648438 C 50.359375 13.972656 50.089844 13.367188 49.550781 12.964844 L 48.476562 12.023438 C 43.664062 7.882812 37.269531 6.132812 30.941406 7.277344 L 25.085938 8.355469 L 21.6875 8.992188 L 19.0625 6.570312 C 18.828125 6.402344 18.558594 6.199219 18.253906 5.964844 L 18.054688 5.832031 L 10.917969 5.359375 L 11.1875 6.570312 C 11.222656 6.738281 11.253906 6.839844 11.324219 6.976562 L 12.804688 10.070312 L 10.75 9.699219 L 10.75 19.394531 L 12.703125 19.054688 L 11.324219 22.117188 L 11.253906 22.253906 C 11.1875 22.386719 11.152344 22.488281 11.121094 22.65625 L 10.917969 23.867188 L 17.984375 23.398438 L 18.1875 23.261719 C 18.523438 23.0625 18.757812 22.824219 19.027344 22.625 L 21.722656 20.269531 L 30.941406 22.019531 C 37.234375 23.195312 43.664062 21.480469 48.476562 17.273438 L 49.550781 16.332031 C 50.058594 15.894531 50.359375 15.253906 50.359375 14.648438 Z M 47.265625 15.859375 C 42.855469 19.660156 37.035156 21.242188 31.3125 20.167969 L 21.183594 18.179688 L 17.785156 21.175781 C 17.683594 21.277344 17.515625 21.378906 17.378906 21.511719 L 13.644531 21.75 L 15.292969 18.148438 L 16 16.632812 L 12.636719 17.238281 L 12.667969 12.023438 L 16.136719 12.59375 L 13.679688 7.445312 L 17.449219 7.714844 C 17.617188 7.816406 17.714844 7.917969 17.816406 8.019531 L 21.117188 11.046875 L 22.695312 10.742188 L 31.277344 9.09375 C 37.035156 8.050781 42.855469 9.632812 47.230469 13.402344 L 48.339844 14.378906 C 48.441406 14.480469 48.476562 14.582031 48.476562 14.648438 C 48.476562 14.714844 48.441406 14.816406 48.339844 14.917969 Z M 47.265625 15.859375 " fill-opacity="1" fill-rule="nonzero"/></g></g></g><g clip-path="url(#97b8aa46d4)"><g clip-path="url(#6c16c1e088)"><g clip-path="url(#25f6f610c9)"><path fill="#ffffff" d="M 35.148438 15.65625 C 35.316406 16.230469 35.585938 16.769531 36.058594 17.238281 C 37.4375 18.617188 39.726562 18.617188 41.105469 17.238281 C 42.484375 15.859375 42.484375 13.570312 41.105469 12.191406 C 39.726562 10.8125 37.4375 10.8125 36.058594 12.191406 C 35.621094 12.628906 35.316406 13.199219 35.148438 13.773438 L 21.753906 13.773438 L 21.753906 15.65625 Z M 39.757812 13.535156 C 40.398438 14.175781 40.398438 15.253906 39.757812 15.894531 C 39.121094 16.53125 38.042969 16.53125 37.402344 15.894531 C 36.765625 15.253906 36.765625 14.175781 37.402344 13.535156 C 38.042969 12.898438 39.121094 12.898438 39.757812 13.535156 Z M 39.757812 13.535156 " fill-opacity="1" fill-rule="nonzero"/></g></g></g></svg>